<svg width="285" height="272" viewBox="0 0 285 272" fill="none" xmlns="http://www.w3.org/2000/svg">
    <g opacity="0.2">
    <path d="M132.344 118.022L116.862 121.415L129.752 106.038L145.162 101.561L132.344 118.022Z" fill="#FCFCFC"/>
    <path d="M116.862 121.776H116.934L132.416 118.383C132.488 118.383 132.56 118.311 132.632 118.239L145.522 101.778C145.594 101.634 145.594 101.489 145.522 101.345C145.45 101.201 145.306 101.128 145.09 101.201L129.608 105.677C129.536 105.677 129.464 105.749 129.464 105.821L116.574 121.199C116.502 121.343 116.43 121.487 116.574 121.632C116.646 121.704 116.718 121.776 116.862 121.776ZM132.128 117.661L117.87 120.838L129.968 106.326L144.226 102.211L132.128 117.661Z" fill="#080E31"/>
    <path d="M134.072 139.247L116.862 121.415L132.344 118.022L150.202 137.37L134.072 139.247Z" fill="#FCFCFC"/>
    <path d="M134.072 139.608C134.144 139.608 134.144 139.608 134.072 139.608L150.202 137.731C150.346 137.731 150.418 137.659 150.49 137.515C150.562 137.37 150.49 137.226 150.418 137.154L132.56 117.805C132.488 117.733 132.344 117.661 132.2 117.733L116.718 121.126C116.574 121.126 116.502 121.271 116.43 121.343C116.358 121.487 116.43 121.632 116.502 121.704L133.712 139.536C133.928 139.608 134 139.608 134.072 139.608ZM149.482 137.081L134.288 138.886L117.654 121.632L132.272 118.383L149.482 137.081Z" fill="#080E31"/>
    <path d="M150.202 137.37L132.344 118.022L145.162 101.561L161.58 120.549L150.202 137.37Z" fill="#FCFCFC"/>
    <path d="M150.202 137.731C150.346 137.731 150.418 137.659 150.49 137.587L161.868 120.765C161.94 120.621 161.94 120.477 161.868 120.332L145.45 101.345C145.378 101.273 145.306 101.201 145.162 101.201C145.09 101.201 144.946 101.273 144.874 101.345L131.984 117.805C131.84 117.95 131.912 118.166 131.984 118.239L149.842 137.587C149.986 137.731 150.058 137.731 150.202 137.731ZM161.148 120.621L150.13 136.793L132.776 117.95L145.162 102.067L161.148 120.621Z" fill="#080E31"/>
    <path d="M12.1793 222.088L1.05833 224.525L10.3172 213.479L21.3864 210.264L12.1793 222.088Z" fill="#FCFCFC"/>
    <path d="M1.05835 224.785H1.11008L12.231 222.347C12.2828 222.347 12.3345 222.295 12.3862 222.244L21.645 210.42C21.6968 210.316 21.6968 210.212 21.645 210.108C21.5933 210.005 21.4899 209.953 21.3347 210.005L10.2137 213.22C10.162 213.22 10.1103 213.272 10.1103 213.324L0.851454 224.37C0.799728 224.474 0.748003 224.577 0.851454 224.681C0.903179 224.733 0.954901 224.785 1.05835 224.785ZM12.0241 221.829L1.7825 224.11L10.4724 213.687L20.714 210.731L12.0241 221.829Z" fill="#080E31"/>
    <path d="M13.4207 237.335L1.05833 224.525L12.1793 222.088L25.0072 235.986L13.4207 237.335Z" fill="#FCFCFC"/>
    <path d="M13.4207 237.594C13.4724 237.594 13.4724 237.594 13.4207 237.594L25.0072 236.246C25.1107 236.246 25.1624 236.194 25.2141 236.09C25.2658 235.986 25.2141 235.883 25.1624 235.831L12.3345 221.932C12.2828 221.881 12.1793 221.829 12.0759 221.881L0.954893 224.318C0.851442 224.318 0.799713 224.422 0.747988 224.474C0.696262 224.577 0.747992 224.681 0.799717 224.733L13.1621 237.542C13.3173 237.594 13.369 237.594 13.4207 237.594ZM24.4899 235.779L13.5759 237.075L1.62733 224.681L12.1276 222.347L24.4899 235.779Z" fill="#080E31"/>
    <path d="M25.0072 235.986L12.1793 222.088L21.3864 210.264L33.1798 223.903L25.0072 235.986Z" fill="#FCFCFC"/>
    <path d="M25.0072 236.246C25.1106 236.246 25.1624 236.194 25.2141 236.142L33.3867 224.059C33.4384 223.955 33.4384 223.851 33.3867 223.748L21.5933 210.108C21.5416 210.057 21.4899 210.005 21.3864 210.005C21.3347 210.005 21.2312 210.057 21.1795 210.108L11.9207 221.932C11.8172 222.036 11.869 222.192 11.9207 222.244L24.7486 236.142C24.852 236.246 24.9037 236.246 25.0072 236.246ZM32.8695 223.955L24.9555 235.571L12.4897 222.036L21.3864 210.627L32.8695 223.955Z" fill="#080E31"/>
    <path d="M62.5377 197.4L53.1392 199.46L60.964 190.124L70.3187 187.407L62.5377 197.4Z" fill="#FCFCFC"/>
    <path d="M53.1392 199.679H53.1829L62.5814 197.619C62.6251 197.619 62.6688 197.575 62.7125 197.531L70.5372 187.539C70.581 187.451 70.581 187.363 70.5372 187.276C70.4935 187.188 70.4061 187.144 70.275 187.188L60.8765 189.905C60.8328 189.905 60.7891 189.949 60.7891 189.993L52.9644 199.328C52.9207 199.416 52.8769 199.503 52.9644 199.591C53.0081 199.635 53.0518 199.679 53.1392 199.679ZM62.4065 197.181L53.7512 199.109L61.0951 190.3L69.7504 187.802L62.4065 197.181Z" fill="#080E31"/>
    <path d="M63.5868 210.285L53.1392 199.46L62.5377 197.4L73.3787 209.145L63.5868 210.285Z" fill="#FCFCFC"/>
    <path d="M63.5868 210.504C63.6305 210.504 63.6305 210.504 63.5868 210.504L73.3787 209.364C73.4661 209.364 73.5098 209.321 73.5535 209.233C73.5972 209.145 73.5535 209.058 73.5098 209.014L62.6688 197.268C62.6251 197.224 62.5377 197.181 62.4502 197.224L53.0518 199.284C52.9644 199.284 52.9206 199.372 52.8769 199.416C52.8332 199.503 52.8769 199.591 52.9206 199.635L63.3682 210.46C63.4994 210.504 63.5431 210.504 63.5868 210.504ZM72.9415 208.97L63.7179 210.066L53.6201 199.591L62.4939 197.619L72.9415 208.97Z" fill="#080E31"/>
    <path d="M73.3786 209.145L62.5376 197.4L70.3187 187.407L80.2854 198.934L73.3786 209.145Z" fill="#FCFCFC"/>
    <path d="M73.3786 209.365C73.4661 209.365 73.5098 209.321 73.5535 209.277L80.4603 199.065C80.504 198.978 80.504 198.89 80.4603 198.803L70.4935 187.276C70.4498 187.232 70.4061 187.188 70.3187 187.188C70.275 187.188 70.1875 187.232 70.1438 187.276L62.3191 197.269C62.2317 197.356 62.2754 197.488 62.3191 197.532L73.1601 209.277C73.2475 209.365 73.2912 209.365 73.3786 209.365ZM80.0231 198.978L73.3349 208.795L62.7999 197.356L70.3187 187.714L80.0231 198.978Z" fill="#080E31"/>
    <path d="M250.744 64.0058L238.143 69.7814C238.143 69.7814 243.255 62.8507 247.216 57.1473C251.464 54.9093 259.961 50.361 259.961 50.361L250.744 64.0058Z" fill="#FCFCFC"/>
    <path d="M238.071 70.1424C238.143 70.1424 238.143 70.1424 238.215 70.1424L250.816 64.3668C250.888 64.3668 250.96 64.2946 250.96 64.2224L260.249 50.5776C260.321 50.4332 260.321 50.2888 260.249 50.1444C260.105 50 259.961 50 259.817 50.0722L247.072 56.8585C247 56.8585 247 56.9307 246.928 57.0029C242.967 62.6342 237.855 69.5649 237.855 69.6371C237.783 69.7815 237.783 69.9259 237.855 70.0703C237.855 70.1424 237.999 70.1424 238.071 70.1424ZM250.456 63.7171L239.223 68.8429C240.807 66.6771 244.479 61.6956 247.504 57.3639L258.809 51.3717L250.456 63.7171Z" fill="#080E31"/>
    <path d="M249.448 84.5815L238.071 69.7815L250.744 64.0059L262.337 80.1776L249.448 84.5815Z" fill="#FCFCFC"/>
    <path d="M249.448 84.9425C249.52 84.9425 249.52 84.9425 249.592 84.9425L262.481 80.5386C262.625 80.4664 262.697 80.3942 262.697 80.322C262.697 80.1776 262.697 80.1054 262.625 80.0332L251.032 63.7893C250.96 63.6449 250.744 63.5727 250.6 63.6449L237.999 69.4205C237.927 69.4927 237.855 69.5649 237.783 69.6371C237.783 69.7093 237.783 69.8537 237.855 69.9259L249.16 84.7981C249.232 84.8703 249.376 84.9425 249.448 84.9425ZM261.761 80.0332L249.52 84.1483L238.575 69.9259L250.528 64.439L261.761 80.0332Z" fill="#080E31"/>
    <path d="M262.337 80.1775L250.744 64.0058L259.961 50.361L270.474 66.3883L262.337 80.1775Z" fill="#FCFCFC"/>
    <path d="M262.337 80.5385C262.409 80.5385 262.409 80.5385 262.337 80.5385C262.481 80.5385 262.553 80.4663 262.625 80.3941L270.834 66.6049C270.906 66.4605 270.906 66.3161 270.834 66.2439L260.249 50.1444C260.177 50.0722 260.105 50 259.961 50C259.817 50 259.745 50.0722 259.673 50.1444L250.456 63.7893C250.384 63.9337 250.384 64.078 250.456 64.2224L262.049 80.3941C262.121 80.4663 262.265 80.5385 262.337 80.5385ZM270.114 66.3883L262.337 79.5278L251.176 64.0059L259.961 51.0107L270.114 66.3883Z" fill="#080E31"/>
    <path d="M200.266 114.109L179.6 120.39C179.6 120.39 191.409 105.085 197.242 97.36C204.155 94.761 217.98 89.5629 217.98 89.5629L200.266 114.109Z" fill="#FCFCFC"/>
    <path d="M179.528 120.751H179.6L200.266 114.47C200.338 114.47 200.41 114.398 200.482 114.326L218.196 89.7795C218.268 89.6351 218.268 89.4907 218.196 89.3464C218.124 89.202 217.908 89.202 217.764 89.202L197.026 96.999C196.954 96.999 196.882 97.0712 196.882 97.1434L179.24 120.174C179.168 120.318 179.168 120.462 179.24 120.607C179.312 120.679 179.456 120.751 179.528 120.751ZM200.05 113.821L180.536 119.741L197.458 97.6488L216.972 90.3571L200.05 113.821Z" fill="#080E31"/>
    <path d="M201.85 144.07L179.528 120.39L200.266 114.109L223.309 139.955L201.85 144.07Z" fill="#FCFCFC"/>
    <path d="M201.85 144.431C201.922 144.431 201.922 144.431 201.85 144.431L223.381 140.244C223.525 140.244 223.597 140.1 223.669 140.027C223.741 139.883 223.669 139.739 223.597 139.666L200.482 113.821C200.41 113.748 200.266 113.676 200.122 113.748L179.456 120.029C179.312 120.102 179.24 120.174 179.24 120.246C179.24 120.39 179.24 120.462 179.312 120.607L201.634 144.359C201.706 144.431 201.778 144.431 201.85 144.431ZM222.661 139.666L201.994 143.709L180.248 120.535L200.194 114.47L222.661 139.666Z" fill="#080E31"/>
    <path d="M223.309 139.955L200.266 114.109L217.98 89.563L239.151 115.048L223.309 139.955Z" fill="#FCFCFC"/>
    <path d="M223.309 140.316C223.381 140.316 223.381 140.316 223.309 140.316C223.453 140.316 223.525 140.244 223.597 140.172L239.367 115.264C239.439 115.12 239.439 114.976 239.367 114.831L218.196 89.4186C218.124 89.3464 218.052 89.2742 217.908 89.2742C217.764 89.2742 217.692 89.3464 217.62 89.4186L199.906 113.965C199.834 114.109 199.834 114.326 199.906 114.398L223.021 140.244C223.165 140.244 223.237 140.316 223.309 140.316ZM238.647 115.048L223.237 139.305L200.626 114.037L217.908 90.1405L238.647 115.048Z" fill="#080E31"/>
    <path d="M73.4499 8.27569L57.2627 13.1953C57.2627 13.1953 66.5125 1.20721 71.0811 -4.8434C76.4956 -6.87912 87.3247 -10.9506 87.3247 -10.9506L73.4499 8.27569Z" fill="#FCFCFC"/>
    <path d="M57.2063 13.4781H57.2627L73.4499 8.55845C73.5063 8.55845 73.5627 8.5019 73.6191 8.44535L87.4939 -10.7809C87.5503 -10.894 87.5503 -11.0071 87.4939 -11.1202C87.4375 -11.2333 87.2683 -11.2333 87.1555 -11.2333L70.9119 -5.12612C70.8555 -5.12612 70.7991 -5.06956 70.7991 -5.01302L56.9807 13.0257C56.9243 13.1388 56.9243 13.2519 56.9807 13.365C57.0371 13.4216 57.1499 13.4781 57.2063 13.4781ZM73.2807 8.04952L57.9959 12.6864L71.2503 -4.61718L86.5351 -10.3285L73.2807 8.04952Z" fill="#080E31"/>
    <path d="M74.6908 31.7431L57.2063 13.1954L73.4499 8.27576L91.4984 28.5198L74.6908 31.7431Z" fill="#FCFCFC"/>
    <path d="M74.6908 32.0258C74.7472 32.0258 74.7472 32.0258 74.6908 32.0258L91.5548 28.7461C91.6677 28.7461 91.724 28.633 91.7805 28.5764C91.8369 28.4633 91.7804 28.3502 91.724 28.2937L73.6191 8.04957C73.5627 7.99303 73.4499 7.93648 73.3371 7.99303L57.1499 12.9127C57.0371 12.9692 56.9807 13.0258 56.9807 13.0823C56.9807 13.1954 56.9807 13.252 57.0371 13.3651L74.5216 31.9693C74.578 32.0258 74.6344 32.0258 74.6908 32.0258ZM90.9908 28.2937L74.8036 31.4603L57.7703 13.3085L73.3935 8.55851L90.9908 28.2937Z" fill="#080E31"/>
    <path d="M91.4984 28.5198L73.4499 8.27572L87.3247 -10.9505L103.907 9.01083L91.4984 28.5198Z" fill="#FCFCFC"/>
    <path d="M91.4984 28.8026C91.5548 28.8026 91.5548 28.8026 91.4984 28.8026C91.6112 28.8026 91.6676 28.746 91.724 28.6895L104.076 9.18048C104.132 9.06738 104.132 8.95429 104.076 8.84119L87.4939 -11.0636C87.4375 -11.1202 87.3811 -11.1767 87.2683 -11.1767C87.1555 -11.1767 87.0991 -11.1202 87.0427 -11.0636L73.1679 8.16262C73.1115 8.27571 73.1115 8.44536 73.1679 8.5019L91.2728 28.746C91.3856 28.746 91.442 28.8026 91.4984 28.8026ZM103.512 9.01083L91.442 28.0109L73.7319 8.21916L87.2683 -10.4982L103.512 9.01083Z" fill="#080E31"/>
    <path d="M232.454 146.38C223.237 149.196 203.579 155.116 203.579 155.116L224.173 126.671L252.4 116.131C252.4 116.131 238.719 136.634 232.454 146.38Z" fill="#FCFCFC"/>
    <path d="M203.579 155.477H203.651C203.651 155.477 223.237 149.485 232.526 146.741C232.598 146.741 232.67 146.669 232.742 146.597C238.935 136.995 252.616 116.564 252.688 116.347C252.76 116.203 252.76 116.059 252.688 115.914C252.616 115.77 252.4 115.77 252.256 115.77L224.029 126.31C223.957 126.31 223.885 126.382 223.885 126.455L203.291 154.9C203.219 155.044 203.219 155.188 203.291 155.333C203.363 155.405 203.507 155.477 203.579 155.477ZM232.238 146.02C224.245 148.402 208.691 153.167 204.515 154.394L224.389 126.96L251.536 116.853C248.8 120.968 237.711 137.573 232.238 146.02Z" fill="#080E31"/>
    <path d="M230.294 185.221C230.294 185.221 207.179 159.231 203.579 155.116C208.043 153.744 232.454 146.38 232.454 146.38L259.889 179.374L230.294 185.221Z" fill="#FCFCFC"/>
    <path d="M230.294 185.582C230.366 185.582 230.366 185.582 230.294 185.582L259.961 179.735C260.105 179.735 260.177 179.59 260.249 179.518C260.321 179.374 260.249 179.229 260.177 179.157L232.742 146.164C232.67 146.02 232.526 146.02 232.382 146.02L203.507 154.755C203.363 154.755 203.291 154.9 203.291 154.972C203.291 155.116 203.291 155.188 203.363 155.333C206.963 159.376 230.078 185.438 230.078 185.438C230.15 185.51 230.222 185.582 230.294 185.582ZM259.241 179.157L230.438 184.861C228.565 182.767 208.619 160.314 204.227 155.333L232.31 146.741L259.241 179.157Z" fill="#080E31"/>
    <path d="M259.889 179.374C250.744 168.4 232.454 146.38 232.454 146.38L252.4 116.131L277.387 148.98C277.387 148.98 265.722 169.266 259.889 179.374Z" fill="#FCFCFC"/>
    <path d="M259.889 179.735C260.033 179.735 260.177 179.662 260.177 179.59L277.675 149.196C277.747 149.052 277.747 148.907 277.675 148.763L252.688 115.914C252.616 115.842 252.472 115.77 252.4 115.77C252.256 115.77 252.184 115.842 252.112 115.914L232.166 146.164C232.094 146.308 232.094 146.453 232.166 146.597L259.601 179.59C259.673 179.662 259.817 179.735 259.889 179.735ZM276.955 149.052L259.817 178.724L232.886 146.308L252.472 116.781L276.955 149.052Z" fill="#080E31"/>
    <path d="M271.05 117.575L235.406 130.064L256.433 99.8147L291.645 85.52L271.05 117.575Z" fill="#FCFCFC"/>
    <path d="M235.406 130.425C235.478 130.425 235.478 130.425 235.55 130.425L271.194 117.936C271.267 117.936 271.339 117.863 271.411 117.791L291.933 85.6644C292.005 85.52 292.005 85.3756 291.933 85.2312C291.861 85.0869 291.645 85.0869 291.501 85.1591L256.289 99.5259C256.217 99.5259 256.145 99.5981 256.145 99.6703L235.118 129.848C235.046 129.992 235.046 130.137 235.118 130.281C235.19 130.353 235.262 130.425 235.406 130.425ZM270.834 117.286L236.342 129.342L256.649 100.103L290.709 86.242L270.834 117.286Z" fill="#080E31"/>
    <path d="M263.634 165.007L235.406 130.064L271.05 117.575L299.854 156.56L263.634 165.007Z" fill="#FCFCFC"/>
    <path d="M263.634 165.368H263.706L299.926 156.921C300.07 156.921 300.142 156.777 300.214 156.704C300.286 156.56 300.214 156.488 300.142 156.343L271.339 117.43C271.266 117.286 271.05 117.286 270.906 117.286L235.262 129.703C235.118 129.776 235.046 129.848 235.046 129.92C235.046 130.064 235.046 130.137 235.118 130.281L263.346 165.223C263.418 165.368 263.49 165.368 263.634 165.368ZM299.206 156.343L263.706 164.646L235.982 130.281L270.906 118.008L299.206 156.343Z" fill="#080E31"/>
    <path d="M299.854 156.56L271.05 117.647C271.05 117.647 284.804 96.2049 291.645 85.52C300.286 98.2264 308.999 110.933 317.64 123.639C311.735 134.613 299.854 156.56 299.854 156.56Z" fill="#FCFCFC"/>
    <path d="M299.854 156.921C299.998 156.921 300.142 156.849 300.142 156.704L317.928 123.856C318 123.711 318 123.567 317.928 123.495L291.933 85.3034C291.861 85.2313 291.717 85.1591 291.645 85.1591C291.501 85.1591 291.429 85.2313 291.357 85.3034L270.762 117.43C270.69 117.575 270.69 117.719 270.762 117.863L299.566 156.777C299.638 156.849 299.71 156.921 299.854 156.921ZM317.208 123.711L299.782 155.91L271.482 117.647L291.645 86.1698L317.208 123.711Z" fill="#080E31"/>
    <path d="M158.789 186.16L135.387 190.925L158.645 160.747L182.336 153.817L158.789 186.16Z" fill="#FCFCFC"/>
    <path d="M135.386 191.286H135.458L158.789 186.521C158.861 186.521 158.933 186.449 159.005 186.377L182.624 154.033C182.696 153.889 182.696 153.744 182.624 153.6C182.552 153.456 182.408 153.383 182.264 153.456L158.501 160.459C158.429 160.459 158.357 160.531 158.285 160.603L135.098 190.78C135.026 190.925 135.026 191.069 135.098 191.214C135.17 191.214 135.314 191.286 135.386 191.286ZM158.573 185.799L136.323 190.347L158.861 161.108L181.472 154.466L158.573 185.799Z" fill="#080E31"/>
    <path d="M164.19 218.215L135.387 190.925L158.789 186.16L188.385 215.904L164.19 218.215Z" fill="#FCFCFC"/>
    <path d="M164.19 218.576L188.457 216.265C188.601 216.265 188.745 216.193 188.745 216.049C188.817 215.904 188.745 215.76 188.673 215.688L159.077 185.943C159.005 185.871 158.861 185.799 158.717 185.871L135.387 190.636C135.242 190.636 135.17 190.78 135.098 190.925C135.026 191.069 135.098 191.214 135.17 191.286L163.902 218.431C163.974 218.503 164.046 218.576 164.19 218.576ZM187.593 215.616L164.262 217.854L136.107 191.214L158.573 186.593L187.593 215.616Z" fill="#080E31"/>
    <path d="M188.385 215.904L158.789 186.16L182.336 153.817L209.267 183.489L188.385 215.904Z" fill="#FCFCFC"/>
    <path d="M188.385 216.265C188.529 216.265 188.601 216.193 188.673 216.121L209.555 183.705C209.627 183.561 209.627 183.417 209.555 183.272L182.624 153.6C182.552 153.528 182.48 153.456 182.336 153.456C182.192 153.456 182.12 153.528 182.048 153.6L158.429 185.943C158.357 186.088 158.357 186.304 158.429 186.377L188.025 216.121C188.169 216.193 188.313 216.265 188.385 216.265ZM208.835 183.489L188.385 215.255L159.293 186.016L182.408 154.25L208.835 183.489Z" fill="#080E31"/>
    <path d="M201.346 167.1L221.725 161.18L204.803 186.304L184.496 190.492L201.346 167.1Z" fill="#FCFCFC"/>
    <path d="M184.496 190.853H184.568L204.875 186.665C204.947 186.665 205.019 186.593 205.091 186.521L222.013 161.397C222.085 161.253 222.085 161.108 222.013 160.964C221.941 160.82 221.797 160.82 221.653 160.82L201.274 166.812C201.202 166.812 201.13 166.884 201.058 166.956L184.208 190.275C184.136 190.42 184.136 190.564 184.208 190.708C184.28 190.781 184.352 190.853 184.496 190.853ZM204.587 185.943L185.288 189.914L201.49 167.461L220.789 161.83L204.587 185.943Z" fill="#080E31"/>
    <path d="M205.811 212.006L184.496 190.492L204.803 186.304L226.981 209.984L205.811 212.006Z" fill="#FCFCFC"/>
    <path d="M205.811 212.367C205.811 212.367 205.883 212.367 205.811 212.367L227.053 210.345C227.197 210.345 227.341 210.273 227.341 210.129C227.413 209.984 227.341 209.84 227.269 209.768L205.091 186.088C205.019 186.016 204.875 185.943 204.731 186.016L184.424 190.203C184.28 190.203 184.208 190.347 184.136 190.42C184.064 190.564 184.136 190.708 184.208 190.781L205.523 212.367C205.667 212.367 205.739 212.367 205.811 212.367ZM226.261 209.696L205.955 211.645L185.216 190.708L204.659 186.738L226.261 209.696Z" fill="#080E31"/>
    <path d="M226.981 209.984L204.803 186.304L221.725 161.18L241.671 184.788L226.981 209.984Z" fill="#FCFCFC"/>
    <path d="M226.981 210.345C227.053 210.345 227.053 210.345 226.981 210.345C227.125 210.345 227.269 210.273 227.269 210.201L241.959 185.005C242.031 184.86 242.031 184.716 241.887 184.572L221.941 160.964C221.869 160.892 221.725 160.82 221.653 160.82C221.509 160.82 221.437 160.892 221.365 160.964L204.443 186.088C204.371 186.232 204.371 186.449 204.515 186.521L226.693 210.201C226.837 210.273 226.909 210.345 226.981 210.345ZM241.239 184.788L226.909 209.335L205.235 186.232L221.725 161.758L241.239 184.788Z" fill="#080E31"/>
    <path d="M235.262 154.322L266.514 145.153L245.703 179.302L214.236 185.727L235.262 154.322Z" fill="#FCFCFC"/>
    <path d="M214.236 186.088H214.308L245.703 179.663C245.775 179.663 245.92 179.59 245.92 179.518L266.73 145.442C266.802 145.298 266.802 145.153 266.73 145.009C266.658 144.864 266.514 144.864 266.37 144.864L235.118 153.961C235.046 153.961 234.974 154.033 234.902 154.105L213.876 185.583C213.804 185.727 213.804 185.871 213.876 186.016C214.02 186.016 214.164 186.088 214.236 186.088ZM245.487 178.941L215.1 185.149L235.55 154.539L265.794 145.731L245.487 178.941Z" fill="#080E31"/>
    <path d="M241.815 215.543L214.236 185.727L245.703 179.302L274.147 212.439L241.815 215.543Z" fill="#FCFCFC"/>
    <path d="M241.815 215.904L274.147 212.728C274.291 212.728 274.363 212.656 274.435 212.511C274.507 212.367 274.435 212.222 274.363 212.15L245.92 179.013C245.848 178.941 245.703 178.868 245.559 178.868L214.164 185.294C214.02 185.294 213.948 185.438 213.876 185.51C213.804 185.655 213.876 185.799 213.948 185.871L241.527 215.688C241.599 215.904 241.743 215.904 241.815 215.904ZM273.355 212.15L241.959 215.182L214.956 185.943L245.559 179.662L273.355 212.15Z" fill="#080E31"/>
    <path d="M274.147 212.439L245.703 179.302L266.514 145.225C266.514 145.225 283.364 167.173 291.789 178.219C285.884 189.553 274.147 212.439 274.147 212.439Z" fill="#FCFCFC"/>
    <path d="M274.147 212.8C274.291 212.8 274.435 212.728 274.435 212.583L292.077 178.291C292.149 178.146 292.149 178.002 292.077 177.93L266.802 144.937C266.73 144.864 266.586 144.792 266.514 144.792C266.37 144.792 266.298 144.864 266.226 144.937L245.415 179.013C245.343 179.157 245.343 179.302 245.415 179.446L273.859 212.583C273.931 212.728 274.003 212.8 274.147 212.8ZM291.357 178.219L274.075 211.789L246.136 179.229L266.586 145.803L291.357 178.219Z" fill="#080E31"/>
    <path d="M134.09 239.223L114.36 240.523L137.763 209.84L158.213 206.086L134.09 239.223Z" fill="#FCFCFC"/>
    <path d="M114.36 240.884C114.36 240.884 114.432 240.884 114.36 240.884L134.09 239.584C134.162 239.584 134.306 239.512 134.378 239.44L158.501 206.302C158.573 206.158 158.573 206.014 158.501 205.869C158.429 205.725 158.285 205.653 158.141 205.725L137.763 209.551C137.691 209.551 137.619 209.623 137.547 209.696L114.144 240.379C114.072 240.523 114.072 240.667 114.144 240.74C114.144 240.812 114.216 240.884 114.36 240.884ZM133.874 238.862L115.152 240.09L137.979 210.201L157.349 206.591L133.874 238.862Z" fill="#080E31"/>
    <path d="M142.875 264.492L114.36 240.523L134.09 239.223L163.83 265.43L142.875 264.492Z" fill="#FCFCFC"/>
    <path d="M163.83 265.791C163.974 265.791 164.118 265.719 164.19 265.575C164.262 265.43 164.19 265.286 164.118 265.141L134.378 238.935C134.306 238.862 134.234 238.862 134.09 238.862L114.36 240.162C114.216 240.162 114.072 240.234 114.072 240.379C114 240.523 114.072 240.667 114.216 240.74L142.731 264.708C142.803 264.78 142.875 264.78 142.947 264.78L163.83 265.791ZM133.946 239.584L162.822 264.997L143.019 264.131L115.296 240.812L133.946 239.584Z" fill="#080E31"/>
    <path d="M163.83 265.43L134.09 239.223L158.213 206.086L184.928 232.509L163.83 265.43Z" fill="#FCFCFC"/>
    <path d="M163.83 265.791C163.974 265.791 164.046 265.719 164.118 265.647L185.288 232.654C185.36 232.509 185.36 232.293 185.216 232.221L158.429 205.797C158.357 205.725 158.285 205.653 158.141 205.725C158.069 205.725 157.925 205.797 157.853 205.869L133.73 239.007C133.586 239.151 133.658 239.368 133.802 239.512L163.542 265.719C163.614 265.719 163.758 265.791 163.83 265.791ZM184.496 232.509L163.758 264.853L134.594 239.151L158.213 206.591L184.496 232.509Z" fill="#080E31"/>
    <path d="M170.815 200.31L199.258 194.896L171.031 236.48L143.379 238.357L170.815 200.31Z" fill="#FCFCFC"/>
    <path d="M143.379 238.718L171.103 236.841C171.247 236.841 171.319 236.769 171.391 236.697L199.618 195.04C199.69 194.896 199.69 194.751 199.618 194.607C199.546 194.463 199.402 194.39 199.258 194.463L170.815 199.877C170.743 199.877 170.671 199.949 170.599 200.022L143.163 238.068C143.091 238.213 143.091 238.357 143.163 238.429C143.091 238.646 143.235 238.718 143.379 238.718ZM170.887 236.191L144.172 237.996L171.103 200.671L198.538 195.401L170.887 236.191Z" fill="#080E31"/>
    <path d="M177.511 268.462L143.379 238.357L171.031 236.48L206.747 269.69L177.511 268.462Z" fill="#FCFCFC"/>
    <path d="M206.747 270.051C206.891 270.051 207.035 269.979 207.107 269.834C207.179 269.69 207.107 269.545 207.035 269.401L171.319 236.191C171.247 236.119 171.175 236.119 171.031 236.119L143.379 237.996C143.235 237.996 143.091 238.068 143.091 238.213C143.019 238.357 143.091 238.502 143.163 238.574L177.223 268.751C177.295 268.823 177.367 268.823 177.439 268.823L206.747 270.051ZM170.887 236.913L205.739 269.329L177.583 268.102L144.172 238.646L170.887 236.913Z" fill="#080E31"/>
    <path d="M206.747 269.69L171.031 236.48C171.031 236.48 194.433 202.043 199.258 194.823C204.299 200.094 231.086 228.322 231.086 228.322L206.747 269.69Z" fill="#FCFCFC"/>
    <path d="M206.747 270.051C206.747 270.051 206.819 270.051 206.747 270.051C206.891 270.051 207.035 269.979 207.035 269.906L231.374 228.539C231.446 228.394 231.446 228.25 231.302 228.105C231.302 228.105 204.515 199.877 199.474 194.607C199.402 194.535 199.258 194.463 199.186 194.463C199.042 194.463 198.97 194.535 198.898 194.607C194.001 201.826 170.671 236.263 170.671 236.263C170.599 236.408 170.599 236.624 170.743 236.697L206.459 269.906C206.603 270.051 206.675 270.051 206.747 270.051ZM230.654 228.394L206.675 269.184L171.535 236.48C173.623 233.376 194.289 202.982 199.33 195.473C204.731 201.104 228.349 225.94 230.654 228.394Z" fill="#080E31"/>
    <path d="M212.724 233.592L177.079 236.047L205.307 193.813L240.951 187.099L212.724 233.592Z" fill="#FCFCFC"/>
    <path d="M177.079 236.408L212.724 234.025C212.868 234.025 212.94 233.953 213.012 233.881L241.311 187.387C241.383 187.243 241.383 187.099 241.311 187.026C241.239 186.882 241.095 186.882 240.951 186.882L205.307 193.596C205.235 193.596 205.163 193.668 205.091 193.741L176.863 235.903C176.791 236.047 176.791 236.191 176.863 236.263C176.791 236.336 176.935 236.408 177.079 236.408ZM212.508 233.303L177.8 235.614L205.595 194.174L240.303 187.604L212.508 233.303Z" fill="#080E31"/>
    <path d="M213.084 269.979L177.079 236.047L212.724 233.592L250.24 271.639L213.084 269.979Z" fill="#FCFCFC"/>
    <path d="M250.24 272C250.384 272 250.528 271.928 250.6 271.783C250.672 271.639 250.6 271.495 250.528 271.35L212.94 233.376C212.868 233.303 212.796 233.231 212.652 233.303L177.007 235.686C176.863 235.686 176.719 235.758 176.719 235.902C176.647 236.047 176.719 236.191 176.791 236.263L212.868 270.267C212.94 270.34 213.012 270.34 213.084 270.34L250.24 272ZM212.58 234.025L249.376 271.278L213.3 269.69L177.944 236.336L212.58 234.025Z" fill="#080E31"/>
    <path d="M250.24 271.639C250.24 271.639 225.181 246.299 212.652 233.664C222.085 218.142 231.518 202.621 240.951 187.171C252.04 199.805 263.13 212.511 274.219 225.145C266.226 240.595 250.24 271.639 250.24 271.639Z" fill="#FCFCFC"/>
    <path d="M250.24 272C250.312 272 250.312 272 250.24 272C250.384 272 250.528 271.928 250.528 271.784L274.507 225.29C274.579 225.145 274.579 225.001 274.435 224.857L241.167 186.882C241.095 186.81 240.951 186.738 240.879 186.738C240.735 186.738 240.663 186.81 240.591 186.882L212.292 233.376C212.22 233.52 212.22 233.664 212.364 233.809L249.952 271.784C250.096 271.928 250.168 272 250.24 272ZM273.787 225.145L250.168 270.989L213.156 233.52L241.023 187.676L273.787 225.145Z" fill="#080E31"/>
    </g>
    </svg>
